<svg width="88" height="32" viewBox="0 0 88 32" fill="none" xmlns="http://www.w3.org/2000/svg">
<path d="M10.6011 0.456177H16.1137L26.3906 31.1462H20.7993L18.2006 23.4953H8.43549L5.87609 31.1462H0.28479L10.6011 0.456177ZM17.2162 19.3025L13.3574 6.63741L9.34112 19.3025H17.2162Z" fill="white"/>
<path d="M32.3708 0.456177L39.3008 11.7812L46.1915 0.456177H52.0978L42.4115 16.0173L51.7828 31.1462H45.8765L39.3008 20.2534L32.6858 31.1462H26.7401L36.1114 16.0173L26.4251 0.456177H32.3708Z" fill="white"/>
<path d="M54.9125 31.1462V0.456177H60.3463V31.1462H54.9125Z" fill="#EC7979"/>
<path d="M87.0874 5.68645H78.1492V31.1462H72.7548V5.68645H63.8166V0.456177H87.0874V5.68645Z" fill="#EC7979"/>
</svg>
