<svg width="36" height="36" viewBox="0 0 36 36" fill="none" xmlns="http://www.w3.org/2000/svg">
<path d="M5.69899 35.3334C8.36781 35.3334 10.5313 33.1699 10.5313 30.501C10.5313 27.8322 8.36781 25.6687 5.69899 25.6687C3.03016 25.6687 0.866653 27.8322 0.866653 30.501C0.866653 33.1699 3.03016 35.3334 5.69899 35.3334Z" fill="#CCCCCC"/>
<path d="M0.866653 0.84198V7.11515C16.4498 7.11515 29.0848 19.7501 29.0848 35.3333H35.358C35.358 16.2921 19.9078 0.84198 0.866653 0.84198ZM0.866653 13.3883V19.6615C9.51165 19.6615 16.5385 26.6883 16.5385 35.3333H22.8117C22.8117 23.2081 12.9918 13.3883 0.866653 13.3883Z" fill="#CCCCCC"/>
</svg>
